<?xml version="1.0" encoding="UTF-8" standalone="no"?>
<svg width="155px" height="250px" viewBox="0 0 155 250" version="1.1" xmlns="http://www.w3.org/2000/svg" xmlns:xlink="http://www.w3.org/1999/xlink" xmlns:sketch="http://www.bohemiancoding.com/sketch/ns">
    <!-- Generator: Sketch 3.5 (25232) - http://www.bohemiancoding.com/sketch -->
    <title>Aux</title>
    <desc>Created with Sketch.</desc>
    <defs></defs>
    <g id="Page-1" stroke="none" stroke-width="1" fill="none" fill-rule="evenodd" sketch:type="MSPage">
        <g id="Aux" sketch:type="MSLayerGroup" transform="translate(77.500000, 125.000000) rotate(-180.000000) translate(-77.500000, -125.000000) translate(-0.000000, -0.000000)">
            <g id="aux" transform="translate(0.000000, -0.000000)" fill="#000000" sketch:type="MSShapeGroup">
                <path d="M14.0208078,25.9462759 L4.68693669,25.9462759 L4.68693669,43.9192549 L-3.23296945e-13,43.9192549 L-3.23296945e-13,73.3177914 C-3.23296945e-13,75.7119128 2.00811569,77.7293925 4.7536072,78.3643353 L5.78566665,92.2534256 L9.13712823,92.2534256 L12.9220778,92.2534256 L13.9554707,78.3563701 C16.6782942,77.7111862 18.6677421,75.7016718 18.6677421,73.3177914 L18.6677421,43.9192549 L14.0208078,43.9192549 L14.0208078,25.9462759 Z" id="Shape"></path>
                <rect id="Rectangle-path" x="5.0912024" y="15.8560575" width="8.48533734" height="7.20729887"></rect>
                <path d="M13.5741167,10.3822845 L12.0863963,10.1780356 L13.5765397,2.74848033 L11.4261294,0.12654554 L7.28522666,-1.687539e-13 L5.0960484,2.74626023 L6.58134588,10.2446385 L5.0936254,10.4488875 L5.0912024,12.9720279 L13.5716937,12.973138 L13.5741167,10.3822845 Z" id="Shape"></path>
            </g>
            <g id="aux" transform="translate(135.765397, -0.000000)" fill="#000000" sketch:type="MSShapeGroup">
                <path d="M14.0208078,25.9462759 L4.68693669,25.9462759 L4.68693669,43.9192549 L-2.38031816e-13,43.9192549 L-2.38031816e-13,73.3177914 C-2.38031816e-13,75.7119128 2.00811569,77.7293925 4.7536072,78.3643353 L5.78566665,92.2534256 L12.9220778,92.2534256 L13.9554707,78.3563701 C16.6782942,77.7111862 18.6677421,75.7016718 18.6677421,73.3177914 L18.6677421,54.3152238 L18.6677421,43.9192549 L14.0208078,43.9192549 L14.0208078,25.9462759 Z" id="Shape"></path>
                <rect id="Rectangle-path" x="5.0912024" y="15.8560575" width="8.48533734" height="7.20729887"></rect>
                <path d="M13.5741167,10.3822845 L12.0863963,10.1780356 L13.5765397,2.74848033 L11.4261294,0.12654554 L7.28522666,-1.81721305e-12 L5.0960484,2.74626023 L6.58134588,10.2446385 L5.0936254,10.4488875 L5.0912024,12.9720279 L13.5716937,12.973138 L13.5741167,10.3822845 Z" id="Shape"></path>
            </g>
            <g id="aux" transform="translate(77.050441, 202.872541) rotate(-180.000000) translate(-77.050441, -202.872541) translate(67.550441, 156.372541)" fill="#000000" sketch:type="MSShapeGroup">
                <path d="M14.0208078,25.9462759 L4.68693669,25.9462759 L4.68693669,43.9192549 L8.8817842e-15,43.9192549 L8.8817842e-15,73.3177914 C8.8817842e-15,75.7119128 2.00811569,77.7293925 4.7536072,78.3643353 L5.78566665,92.2534256 L12.9220778,92.2534256 L13.9554707,78.3563701 C16.6782942,77.7111862 18.6677421,75.7016718 18.6677421,73.3177914 L18.6677421,43.9192549 L14.0208078,43.9192549 L14.0208078,25.9462759 Z" id="Shape"></path>
                <rect id="Rectangle-path" x="5.0912024" y="15.8560575" width="8.48533734" height="7.20729887"></rect>
                <path d="M13.5741167,10.3822845 L12.0863963,10.1780356 L13.5765397,2.74848033 L11.4261294,0.12654554 L7.28522666,7.12319093e-13 L5.0960484,2.74626023 L6.58134588,10.2446385 L5.0936254,10.4488875 L5.0912024,12.9720279 L13.5716937,12.973138 L13.5741167,10.3822845 Z" id="Shape"></path>
            </g>
            <g id="aux" transform="translate(67.882699, -0.000000)" fill="#000000" sketch:type="MSShapeGroup">
                <path d="M14.0208078,43.9192549 L14.0208078,25.9462759 L4.68693669,25.9462759 L4.68693669,43.9192549 L3.73034936e-14,43.9192549 L3.73034936e-14,73.3177914 C3.73034936e-14,75.7119128 2.00811569,77.7293925 4.7536072,78.3643353 L5.78566665,92.2534256 L12.9220778,92.2534256 L13.9554707,78.3563701 C16.6782942,77.7111862 18.6677421,75.7016718 18.6677421,73.3177914 L18.6677421,43.9192549 L14.0208078,43.9192549 L14.0208078,43.9192549 Z" id="Shape"></path>
                <rect id="Rectangle-path" x="5.0912024" y="15.8560575" width="8.48533734" height="7.20729887"></rect>
                <path d="M13.5741167,10.3822845 L12.0863963,10.1780356 L13.5765397,2.74848033 L11.4261294,0.12654554 L7.28522666,-1.19193544e-12 L5.0960484,2.74626023 L6.58134588,10.2446385 L5.0936254,10.4488875 L5.0912024,12.9720279 L13.5716937,12.973138 L13.5741167,10.3822845 Z" id="Shape"></path>
            </g>
            <path d="M77.2165698,92.7240426 L77.2165698,157.839845" id="Line" stroke="#000000" stroke-linecap="square" sketch:type="MSShapeGroup"></path>
            <path d="M9.4335582,92.7240426 C9.4335582,92.7240426 9.39938789,104.795541 11.5213832,109.413175 C16.4617265,120.163762 28.4234515,127.748398 52.048412,122.631504 C72.6114229,118.177793 76.1505254,128.317069 76.7788397,139.768198 C77.1824614,147.124266 77.139939,157.152684 77.139939,157.152684" id="Line" stroke="#000000" stroke-linecap="square" sketch:type="MSShapeGroup"></path>
            <path d="M77.1251236,92.4770176 C77.1251236,92.4770176 76.0985713,98.9838641 80.3714922,105.840908 C86.7399935,116.06087 101.593134,127.009097 121.804705,122.631504 C142.097591,118.236299 145.17046,131.437036 145.23744,142.760188 C145.281931,150.281597 145.23744,157.152683 145.23744,157.152683" id="Line" stroke="#000000" stroke-linecap="square" sketch:type="MSShapeGroup" transform="translate(111.137104, 124.814850) scale(-1, 1) translate(-111.137104, -124.814850) "></path>
        </g>
    </g>
</svg>