<?xml version="1.0" encoding="UTF-8" standalone="no"?>
<svg width="598px" height="408px" viewBox="0 0 598 408" version="1.1" xmlns="http://www.w3.org/2000/svg" xmlns:xlink="http://www.w3.org/1999/xlink" xmlns:sketch="http://www.bohemiancoding.com/sketch/ns">
    <!-- Generator: Sketch 3.5 (25232) - http://www.bohemiancoding.com/sketch -->
    <title>browser-window</title>
    <desc>Created with Sketch.</desc>
    <defs></defs>
    <g id="Page-1" stroke="none" stroke-width="1" fill="none" fill-rule="evenodd" sketch:type="MSPage">
        <g id="browser-window" sketch:type="MSLayerGroup" transform="translate(8.000000, 4.000000)">
            <rect id="background" fill="#F5F5F5" sketch:type="MSShapeGroup" x="0" y="37" width="584" height="357"></rect>
            <g id="Browser" sketch:type="MSShapeGroup">
                <path d="M6.99124862,0 C3.13008862,0 0,3.13863823 0,7.0029154 L0,37 L584,37 L584,7.0029154 C584,3.13531202 580.857921,0 577.008751,0 L6.99124862,0 Z" id="background" fill="#D4D4D4"></path>
                <ellipse id="object" fill="#E96E4C" cx="17.3306276" cy="18.5" rx="5.09724342" ry="5.04545455"></ellipse>
                <path d="M32.9621741,23.5454545 C35.777304,23.5454545 38.0594176,21.2865276 38.0594176,18.5 C38.0594176,15.7134724 35.777304,13.4545455 32.9621741,13.4545455 C30.1470443,13.4545455 27.8649307,15.7134724 27.8649307,18.5 C27.8649307,21.2865276 30.1470443,23.5454545 32.9621741,23.5454545 Z" id="object" fill="#E6AA34"></path>
                <ellipse id="object" fill="#85C33D" cx="48.5937206" cy="18.5" rx="5.09724342" ry="5.04545455"></ellipse>
                <path d="M69.112426,9.41818182 L69.112426,27.5818182 L525.537928,27.5818182 L578.047412,27.5818182 L578.047412,9.41818182 L69.112426,9.41818182 Z" id="search" opacity="0.85" fill="#FFFFFF"></path>
            </g>
        </g>
    </g>
</svg>