<?xml version="1.0" encoding="UTF-8" standalone="no"?>
<svg width="127px" height="127px" viewBox="0 0 127 127" version="1.1" xmlns="http://www.w3.org/2000/svg" xmlns:xlink="http://www.w3.org/1999/xlink" xmlns:sketch="http://www.bohemiancoding.com/sketch/ns">
    <!-- Generator: Sketch 3.5 (25232) - http://www.bohemiancoding.com/sketch -->
    <title>Mic</title>
    <desc>Created with Sketch.</desc>
    <defs></defs>
    <g id="Page-1" stroke="none" stroke-width="1" fill="none" fill-rule="evenodd" sketch:type="MSPage">
        <g id="+-Connect-Microphone" sketch:type="MSArtboardGroup" transform="translate(-548.000000, -140.000000)">
            <g id="Content" sketch:type="MSLayerGroup" transform="translate(200.000000, 59.000000)">
                <g id="Input-Connector" sketch:type="MSShapeGroup">
                    <g id="Mic" transform="translate(349.000000, 82.000000)">
                        <circle id="Circle" stroke="#979797" cx="62.5" cy="62.5" r="62.5"></circle>
                        <g id="logo" transform="translate(41.000000, 24.000000)" fill="#5B5C59">
                            <path d="M6.02560106,12.3008128 L6.02560106,12.3008128 L6.02560106,50.9582289 C6.02560106,56.7825984 10.3410541,61.5018462 15.6644351,61.5018462 L26.916479,61.5018462 C32.2378288,61.5018462 36.5553131,56.7813079 36.5553131,50.9582289 L36.5553131,12.3008128 C36.5553131,6.47644338 32.2398601,1.7571956 26.916479,1.7571956 L15.6644351,1.7571956 C10.3430854,1.7571956 6.02560106,6.47773384 6.02560106,12.3008128 L6.02560106,12.3008128 Z M4.41877411,12.3008128 L4.41877411,12.3008128 C4.41877411,5.50807491 9.45491563,0 15.6644351,0 L26.916479,0 C33.1277577,0 38.1621401,5.50648684 38.1621401,12.3008128 L38.1621401,50.9582289 C38.1621401,57.7509669 33.1259985,63.2590418 26.916479,63.2590418 L15.6644351,63.2590418 C9.45315646,63.2590418 4.41877411,57.7525549 4.41877411,50.9582289 L4.41877411,12.3008128 Z" id="Shape"></path>
                            <path d="M40.9740872,44.369189 L40.9740872,50.9586725 C40.8340525,59.4001624 34.328683,66.3341341 26.5126447,66.3341341 L16.0682695,66.3341341 C8.10939289,66.3341341 1.60682695,59.4024063 1.60682695,50.9586725 L1.60682695,44.369189 C1.60682695,43.8839529 1.24712649,43.4905912 0.803413475,43.4905912 C0.359700465,43.4905912 0,43.8839529 0,44.369189 L0,50.9586725 C0,60.3830668 7.23102365,68.0913297 16.0682695,68.0913297 L26.5126447,68.0913297 C35.2020797,68.0913297 42.4246911,60.392861 42.5807823,50.9745938 L42.5809142,44.369189 C42.5809142,43.8839529 42.2212137,43.4905912 41.7775007,43.4905912 C41.3337877,43.4905912 40.9740872,43.8839529 40.9740872,44.369189 L40.9740872,44.369189 Z" id="Shape"></path>
                            <path d="M7.63242801,77.7559055 L34.8790927,77.7559055 C35.3228057,77.7559055 35.6825062,77.3625439 35.6825062,76.8773077 C35.6825062,76.3920715 35.3228057,75.9987099 34.8790927,75.9987099 L7.63242801,75.9987099 C7.188715,75.9987099 6.82901454,76.3920715 6.82901454,76.8773077 C6.82901454,77.3625439 7.188715,77.7559055 7.63242801,77.7559055 L7.63242801,77.7559055 Z" id="Shape"></path>
                            <path d="M20.4870436,67.6520308 L20.4870436,76.8773077 C20.4870436,77.3625439 20.8467441,77.7559055 21.2904571,77.7559055 C21.7341701,77.7559055 22.0938706,77.3625439 22.0938706,76.8773077 L22.0938706,67.6520308 C22.0938706,67.1667946 21.7341701,66.773433 21.2904571,66.773433 C20.8467441,66.773433 20.4870436,67.1667946 20.4870436,67.6520308 L20.4870436,67.6520308 Z" id="Shape"></path>
                            <path d="M5.22218759,17.1326571 L13.7367703,17.1326571 C14.1804833,17.1326571 14.5401838,16.7392955 14.5401838,16.2540593 C14.5401838,15.7688232 14.1804833,15.3754615 13.7367703,15.3754615 L5.22218759,15.3754615 C4.77847458,15.3754615 4.41877411,15.7688232 4.41877411,16.2540593 C4.41877411,16.7392955 4.77847458,17.1326571 5.22218759,17.1326571 L5.22218759,17.1326571 Z" id="Shape"></path>
                            <path d="M28.9228851,17.1326571 L37.4374678,17.1326571 C37.8811808,17.1326571 38.2408813,16.7392955 38.2408813,16.2540593 C38.2408813,15.7688232 37.8811808,15.3754615 37.4374678,15.3754615 L28.9228851,15.3754615 C28.4791721,15.3754615 28.1194716,15.7688232 28.1194716,16.2540593 C28.1194716,16.7392955 28.4791721,17.1326571 28.9228851,17.1326571 L28.9228851,17.1326571 Z" id="Shape"></path>
                            <path d="M5.22218759,25.0400374 L13.7367703,25.0400374 C14.1804833,25.0400374 14.5401838,24.6466757 14.5401838,24.1614396 C14.5401838,23.6762034 14.1804833,23.2828418 13.7367703,23.2828418 L5.22218759,23.2828418 C4.77847458,23.2828418 4.41877411,23.6762034 4.41877411,24.1614396 C4.41877411,24.6466757 4.77847458,25.0400374 5.22218759,25.0400374 L5.22218759,25.0400374 Z" id="Shape"></path>
                            <path d="M28.9228851,25.0400374 L37.4374678,25.0400374 C37.8811808,25.0400374 38.2408813,24.6466757 38.2408813,24.1614396 C38.2408813,23.6762034 37.8811808,23.2828418 37.4374678,23.2828418 L28.9228851,23.2828418 C28.4791721,23.2828418 28.1194716,23.6762034 28.1194716,24.1614396 C28.1194716,24.6466757 28.4791721,25.0400374 28.9228851,25.0400374 L28.9228851,25.0400374 Z" id="Shape"></path>
                            <path d="M5.22218759,32.9474176 L13.7367703,32.9474176 C14.1804833,32.9474176 14.5401838,32.554056 14.5401838,32.0688198 C14.5401838,31.5835836 14.1804833,31.190222 13.7367703,31.190222 L5.22218759,31.190222 C4.77847458,31.190222 4.41877411,31.5835836 4.41877411,32.0688198 C4.41877411,32.554056 4.77847458,32.9474176 5.22218759,32.9474176 L5.22218759,32.9474176 Z" id="Shape"></path>
                            <path d="M28.9228851,32.9474176 L37.4374678,32.9474176 C37.8811808,32.9474176 38.2408813,32.554056 38.2408813,32.0688198 C38.2408813,31.5835836 37.8811808,31.190222 37.4374678,31.190222 L28.9228851,31.190222 C28.4791721,31.190222 28.1194716,31.5835836 28.1194716,32.0688198 C28.1194716,32.554056 28.4791721,32.9474176 28.9228851,32.9474176 L28.9228851,32.9474176 Z" id="Shape"></path>
                            <path d="M5.22218759,40.8547978 L13.7367703,40.8547978 C14.1804833,40.8547978 14.5401838,40.4614362 14.5401838,39.9762 C14.5401838,39.4909638 14.1804833,39.0976022 13.7367703,39.0976022 L5.22218759,39.0976022 C4.77847458,39.0976022 4.41877411,39.4909638 4.41877411,39.9762 C4.41877411,40.4614362 4.77847458,40.8547978 5.22218759,40.8547978 L5.22218759,40.8547978 Z" id="Shape"></path>
                            <path d="M28.9228851,40.8547978 L37.4374678,40.8547978 C37.8811808,40.8547978 38.2408813,40.4614362 38.2408813,39.9762 C38.2408813,39.4909638 37.8811808,39.0976022 37.4374678,39.0976022 L28.9228851,39.0976022 C28.4791721,39.0976022 28.1194716,39.4909638 28.1194716,39.9762 C28.1194716,40.4614362 28.4791721,40.8547978 28.9228851,40.8547978 L28.9228851,40.8547978 Z" id="Shape"></path>
                        </g>
                    </g>
                </g>
            </g>
        </g>
    </g>
</svg>