<?xml version="1.0" encoding="UTF-8" standalone="no"?>
<svg width="91px" height="173px" viewBox="0 0 91 173" version="1.1" xmlns="http://www.w3.org/2000/svg" xmlns:xlink="http://www.w3.org/1999/xlink" xmlns:sketch="http://www.bohemiancoding.com/sketch/ns">
    <!-- Generator: Sketch 3.5 (25232) - http://www.bohemiancoding.com/sketch -->
    <title>Group</title>
    <desc>Created with Sketch.</desc>
    <defs></defs>
    <g id="Page-1" stroke="none" stroke-width="1" fill="none" fill-rule="evenodd" sketch:type="MSPage">
        <g id="Group" sketch:type="MSLayerGroup" transform="translate(45.500000, 86.500000) rotate(-180.000000) translate(-45.500000, -86.500000) ">
            <g id="aux" transform="translate(-0.000000, 0.000000)" fill="#4975B5" sketch:type="MSShapeGroup">
                <path d="M8.26178571,30.4685956 L8.26178571,18 L2.76178571,18 L2.76178571,30.4685956 L-8.8817842e-15,30.4685956 L-8.8817842e-15,50.8635708 C-8.8817842e-15,52.5244714 1.18328571,53.9240802 2.80107143,54.3645662 L3.40921429,64 L7.61435714,64 L8.22328571,54.3590404 C9.82771429,53.9114498 11,52.5173668 11,50.8635708 L11,30.4685956 L8.26178571,30.4685956 L8.26178571,30.4685956 Z" id="Shape"></path>
                <rect id="Rectangle-path" x="3" y="11" width="5" height="5"></rect>
                <path d="M7.99857224,7.20261829 L7.12193033,7.06092239 L8,1.90673398 L6.73286693,0.087789852 L4.29283267,8.8817842e-16 L3.00285551,1.90519381 L3.87806967,7.10712758 L3.00142776,7.24882348 L3,8.99922991 L7.99714449,9 L7.99857224,7.20261829 Z" id="Shape"></path>
            </g>
            <g id="aux" transform="translate(80.000000, -0.000000)" fill="#4975B5" sketch:type="MSShapeGroup">
                <path d="M8.26178571,30.4685956 L8.26178571,18 L2.76178571,18 L2.76178571,30.4685956 L-5.15143483e-14,30.4685956 L-5.15143483e-14,50.8635708 C-5.15143483e-14,52.5244714 1.18328571,53.9240802 2.80107143,54.3645662 L3.40921429,64 L7.61435714,64 L8.22328571,54.3590404 C9.82771429,53.9114498 11,52.5173668 11,50.8635708 L11,30.4685956 L8.26178571,30.4685956 L8.26178571,30.4685956 Z" id="Shape"></path>
                <rect id="Rectangle-path" x="3" y="11" width="5" height="5"></rect>
                <path d="M7.99857224,7.20261829 L7.12193033,7.06092239 L8,1.90673398 L6.73286693,0.087789852 L4.29283267,-5.59552404e-14 L3.00285551,1.90519381 L3.87806967,7.10712758 L3.00142776,7.24882348 L3,8.99922991 L7.99714449,9 L7.99857224,7.20261829 Z" id="Shape"></path>
            </g>
            <g id="aux" transform="translate(45.500000, 141.000000) rotate(-180.000000) translate(-45.500000, -141.000000) translate(40.000000, 109.000000)" fill="#4975B5" sketch:type="MSShapeGroup">
                <path d="M8.26178571,30.4685956 L8.26178571,18 L2.76178571,18 L2.76178571,30.4685956 L1.24344979e-14,30.4685956 L1.24344979e-14,50.8635708 C1.24344979e-14,52.5244714 1.18328571,53.9240802 2.80107143,54.3645662 L3.40921429,64 L7.61435714,64 L8.22328571,54.3590404 C9.82771429,53.9114498 11,52.5173668 11,50.8635708 L11,30.4685956 L8.26178571,30.4685956 L8.26178571,30.4685956 Z" id="Shape"></path>
                <rect id="Rectangle-path" x="3" y="11" width="5" height="5"></rect>
                <path d="M7.99857224,7.20261829 L7.12193033,7.06092239 L8,1.90673398 L6.73286693,0.087789852 L4.29283267,5.77315973e-14 L3.00285551,1.90519381 L3.87806967,7.10712758 L3.00142776,7.24882348 L3,8.99922991 L7.99714449,9 L7.99857224,7.20261829 Z" id="Shape"></path>
            </g>
            <g id="aux" transform="translate(40.000000, -0.000000)" fill="#4975B5" sketch:type="MSShapeGroup">
                <path d="M8.26178571,30.4685956 L8.26178571,18 L2.76178571,18 L2.76178571,30.4685956 L-8.8817842e-15,30.4685956 L-8.8817842e-15,50.8635708 C-8.8817842e-15,52.5244714 1.18328571,53.9240802 2.80107143,54.3645662 L3.40921429,64 L7.61435714,64 L8.22328571,54.3590404 C9.82771429,53.9114498 11,52.5173668 11,50.8635708 L11,30.4685956 L8.26178571,30.4685956 L8.26178571,30.4685956 Z" id="Shape"></path>
                <rect id="Rectangle-path" x="3" y="11" width="5" height="5"></rect>
                <path d="M7.99857224,7.20261829 L7.12193033,7.06092239 L8,1.90673398 L6.73286693,0.087789852 L4.29283267,-5.59552404e-14 L3.00285551,1.90519381 L3.87806967,7.10712758 L3.00142776,7.24882348 L3,8.99922991 L7.99714449,9 L7.99857224,7.20261829 Z" id="Shape"></path>
            </g>
            <path d="M45.5,64.5 L45.5,109.5" id="Line" stroke="#4975B5" stroke-linecap="square" sketch:type="MSShapeGroup"></path>
            <path d="M5,64.6879014 C5,64.6879014 10.769146,90.1490479 30.6696186,85.0745239 C50.5700912,80 44.5,109.5 44.5,109.5" id="Line" stroke="#4975B5" stroke-linecap="square" sketch:type="MSShapeGroup"></path>
            <path d="M45.4153809,64.1745054 C45.4153809,64.1745054 51.3130761,90.1490479 71.2135487,85.0745239 C91.1140213,80 83.6149468,109.524489 83.6149468,109.524489" id="Line" stroke="#4975B5" stroke-linecap="square" sketch:type="MSShapeGroup" transform="translate(65.207690, 86.849497) scale(-1, 1) translate(-65.207690, -86.849497) "></path>
        </g>
    </g>
</svg>