<svg xmlns="http://www.w3.org/2000/svg" xmlns:xlink="http://www.w3.org/1999/xlink" version="1.1" x="0px" y="0px" viewBox="0 0 40 50" enable-background="new 0 0 40 40" xml:space="preserve"><g><path d="M-12.432,20.343c-2.638-2.639-8.647-1.098-14.659,3.345l-13.17-4.035l4.276,13.197c-3.919,5.689-5.173,11.218-2.673,13.719   c5.571,5.57,15.958,4.217,23.2-3.025C-8.216,36.3-6.861,25.913-12.432,20.343z M-28.071,24.444   c-1.159,0.919-2.313,1.93-3.434,3.052c-0.055,0.054-0.104,0.11-0.159,0.165l-6.224-6.225L-28.071,24.444z M-38.284,22.471   l5.921,5.922c-1.063,1.129-2.033,2.28-2.891,3.434L-38.284,22.471z M-20.3,38.7c-7.415,7.416-15.109,9.687-17.643,7.153   c-1.862-1.862-1.117-6.517,2.349-11.798l2.571,7.938l0.962-0.312l-2.809-8.675c0.916-1.282,1.989-2.59,3.223-3.899l7.474,7.476   l0.716-0.716l-7.491-7.49c0.054-0.057,0.103-0.11,0.158-0.166c1.296-1.297,2.6-2.426,3.884-3.41l8.424,2.581l0.296-0.967   l-7.704-2.36c5.664-4.015,10.769-4.97,12.742-2.997C-10.614,23.591-12.884,31.285-20.3,38.7z"/><path d="M-18.586,10.91l0.82-1.176c-8.996-6.27-21.16-5.186-28.923,2.576c-7.763,7.764-8.846,19.928-2.577,28.924l1.177-0.819   c-5.872-8.427-4.856-19.819,2.414-27.091C-38.403,6.054-27.011,5.039-18.586,10.91z"/><path d="M-22.935-3.468l0.82-1.176c-11.862-8.266-27.898-6.838-38.132,3.398C-70.48,8.987-71.909,25.025-63.644,36.886l1.177-0.819   c-7.868-11.29-6.507-26.557,3.234-36.299C-49.491-9.976-34.225-11.335-22.935-3.468z"/></g><g><path d="M37.712,20.229c-1.759-1.759-5.765-0.732-9.772,2.23l-8.78-2.69l2.851,8.798c-2.613,3.793-3.449,7.478-1.782,9.145   c3.714,3.714,10.639,2.812,15.467-2.017C40.523,30.867,41.426,23.942,37.712,20.229z M27.286,22.963   c-0.772,0.613-1.542,1.287-2.289,2.035c-0.036,0.036-0.069,0.073-0.106,0.11l-4.149-4.15L27.286,22.963z M20.477,21.647   l3.948,3.948c-0.709,0.753-1.356,1.52-1.927,2.289L20.477,21.647z M32.467,32.467c-4.944,4.944-10.073,6.458-11.762,4.769   c-1.242-1.241-0.745-4.344,1.566-7.865l1.714,5.292l0.642-0.208l-1.873-5.783c0.611-0.855,1.326-1.727,2.148-2.6l4.983,4.984   l0.477-0.478l-4.994-4.994c0.036-0.038,0.069-0.073,0.105-0.11c0.864-0.865,1.733-1.617,2.589-2.273l5.616,1.721l0.198-0.645   l-5.136-1.574c3.776-2.676,7.18-3.313,8.495-1.998C38.924,22.394,37.411,27.523,32.467,32.467z"/><path d="M33.609,13.94l0.546-0.784c-5.997-4.18-14.106-3.458-19.282,1.717c-5.175,5.176-5.897,13.285-1.718,19.283l0.784-0.546   c-3.915-5.618-3.237-13.213,1.609-18.061C20.398,10.703,27.993,10.026,33.609,13.94z"/><path d="M30.71,4.354l0.547-0.784c-7.908-5.51-18.599-4.559-25.421,2.265C-0.987,12.658-1.94,23.35,3.571,31.257l0.784-0.546   C-0.89,23.184,0.017,13.006,6.511,6.512C13.006,0.016,23.183-0.89,30.71,4.354z"/></g><g><path d="M76.284,20.171c-1.319-1.319-4.324-0.549-7.33,1.672l-6.585-2.018l2.138,6.599c-1.959,2.845-2.586,5.608-1.336,6.859   c2.786,2.785,7.979,2.108,11.6-1.513C78.392,28.15,79.069,22.956,76.284,20.171z M68.464,22.222   c-0.58,0.459-1.156,0.965-1.717,1.526c-0.027,0.027-0.052,0.055-0.08,0.083l-3.112-3.112L68.464,22.222z M63.358,21.235   l2.961,2.961c-0.532,0.564-1.017,1.14-1.445,1.717L63.358,21.235z M72.35,29.35c-3.708,3.707-7.555,4.843-8.821,3.577   c-0.931-0.932-0.559-3.258,1.174-5.899l1.286,3.969l0.481-0.156l-1.405-4.337c0.458-0.641,0.995-1.295,1.611-1.95l3.737,3.738   l0.358-0.358l-3.746-3.745c0.027-0.028,0.052-0.055,0.079-0.083c0.648-0.648,1.3-1.213,1.942-1.705l4.212,1.291l0.148-0.483   l-3.852-1.18c2.832-2.007,5.384-2.485,6.371-1.499C77.193,21.795,76.058,25.643,72.35,29.35z"/><path d="M73.207,15.455l0.41-0.588c-4.498-3.135-10.58-2.593-14.461,1.288c-3.881,3.882-4.423,9.964-1.289,14.462l0.588-0.41   c-2.936-4.213-2.428-9.91,1.207-13.545C63.298,13.027,68.995,12.519,73.207,15.455z"/><path d="M71.033,8.266l0.41-0.588c-5.931-4.133-13.949-3.419-19.066,1.699c-5.117,5.117-5.832,13.136-1.699,19.066l0.588-0.41   c-3.934-5.645-3.253-13.278,1.617-18.149C57.754,5.012,65.387,4.332,71.033,8.266z"/></g><g><path d="M102.856,20.114c-0.879-0.88-2.882-0.366-4.886,1.115l-4.39-1.345l1.425,4.399c-1.306,1.897-1.724,3.739-0.891,4.573   c1.857,1.857,5.319,1.406,7.733-1.008C104.261,25.433,104.713,21.971,102.856,20.114z M97.643,21.481   c-0.387,0.306-0.771,0.643-1.145,1.017c-0.018,0.018-0.035,0.037-0.053,0.055l-2.075-2.075L97.643,21.481z M94.239,20.823   l1.974,1.974c-0.354,0.376-0.677,0.76-0.963,1.145L94.239,20.823z M100.233,26.233c-2.472,2.472-5.037,3.229-5.881,2.384   c-0.621-0.621-0.372-2.172,0.783-3.933l0.857,2.646l0.321-0.104l-0.936-2.892c0.305-0.427,0.663-0.863,1.074-1.3l2.491,2.492   l0.239-0.238l-2.497-2.497c0.018-0.019,0.034-0.037,0.053-0.055c0.432-0.432,0.867-0.809,1.295-1.137l2.808,0.86l0.099-0.322   l-2.568-0.787c1.888-1.338,3.589-1.657,4.247-0.999C103.462,21.197,102.706,23.762,100.233,26.233z"/><path d="M100.805,16.97l0.273-0.392c-2.998-2.09-7.054-1.729-9.641,0.858c-2.588,2.588-2.949,6.643-0.859,9.642l0.393-0.273   c-1.957-2.809-1.619-6.607,0.805-9.03C94.199,15.351,97.997,15.013,100.805,16.97z"/><path d="M99.355,12.177l0.273-0.392c-3.954-2.755-9.299-2.279-12.71,1.133c-3.411,3.411-3.888,8.757-1.133,12.71l0.393-0.273   c-2.622-3.764-2.169-8.853,1.078-12.1C90.503,10.008,95.592,9.555,99.355,12.177z"/></g><text x="0" y="55" fill="#000000" font-size="5px" font-weight="bold" font-family="'Helvetica Neue', Helvetica, Arial-Unicode, Arial, Sans-serif">Created by Alex Auda Samora</text><text x="0" y="60" fill="#000000" font-size="5px" font-weight="bold" font-family="'Helvetica Neue', Helvetica, Arial-Unicode, Arial, Sans-serif">from the Noun Project</text></svg>