<?xml version="1.0" encoding="UTF-8" standalone="no"?>
<svg width="23px" height="23px" viewBox="0 0 23 23" version="1.1" xmlns="http://www.w3.org/2000/svg" xmlns:xlink="http://www.w3.org/1999/xlink" xmlns:sketch="http://www.bohemiancoding.com/sketch/ns">
    <!-- Generator: Sketch 3.5 (25232) - http://www.bohemiancoding.com/sketch -->
    <title>Shape</title>
    <desc>Created with Sketch.</desc>
    <defs></defs>
    <g id="Page-1" stroke="none" stroke-width="1" fill="none" fill-rule="evenodd" sketch:type="MSPage">
        <g id="Desktop" sketch:type="MSArtboardGroup" transform="translate(-36.000000, -176.000000)" fill="#FFFFFF">
            <g id="Side-Nav" sketch:type="MSLayerGroup">
                <g id="Nav-Item" transform="translate(0.000000, 152.000000)" sketch:type="MSShapeGroup">
                    <g id="item-content" transform="translate(36.000000, 24.000000)">
                        <g id="Settings-Icon">
                            <path d="M3.94833333,13.4166667 C4.0825,14.2983333 4.29333333,15.0841667 4.6,15.755 L1.5525,18.8025 L4.1975,21.4475 L7.245,18.4 C7.91583333,18.7066667 8.70166667,18.9175 9.58333333,19.0325 L9.58333333,19.1666667 L9.58333333,23 L13.4166667,23 L13.4166667,19.1666667 L13.4166667,19.0325 C14.2983333,18.9175 15.0841667,18.7066667 15.755,18.4 L18.8025,21.4475 L21.4475,18.8025 L18.3808333,15.755 C18.7066667,15.0841667 18.9175,14.2983333 19.0325,13.4166667 L21.0833333,13.4166667 L23,13.4166667 L23,9.58333333 L21.0833333,9.58333333 L19.0325,9.58333333 C18.9175,8.70166667 18.7066667,7.91583333 18.3808333,7.245 L21.4475,4.1975 L18.8025,1.5525 L15.755,4.6 C15.0841667,4.29333333 14.2983333,4.0825 13.4166667,3.94833333 L13.4166667,3.83333333 L13.4166667,0 L9.58333333,0 L9.58333333,3.83333333 L9.58333333,3.94833333 C8.70166667,4.0825 7.91583333,4.29333333 7.245,4.6 L4.1975,1.5525 L1.5525,4.1975 L4.6,7.245 C4.29333333,7.91583333 4.0825,8.70166667 3.94833333,9.58333333 L0,9.58333333 L0,13.4166667 L3.94833333,13.4166667 L3.94833333,13.4166667 Z M7.66666667,12.9375 L7.66666667,10.0625 L10.0625,7.66666667 L12.9375,7.66666667 L15.3333333,10.0625 L15.3333333,12.9375 L12.9375,15.3333333 L10.0625,15.3333333 L7.66666667,12.9375 L7.66666667,12.9375 Z" id="Shape"></path>
                        </g>
                    </g>
                </g>
            </g>
        </g>
    </g>
</svg>