<?xml version="1.0" encoding="UTF-8" standalone="no"?>
<svg width="88px" height="85px" viewBox="0 0 88 85" version="1.1" xmlns="http://www.w3.org/2000/svg" xmlns:xlink="http://www.w3.org/1999/xlink">
    <!-- Generator: Sketch 3.7 (28169) - http://www.bohemiancoding.com/sketch -->
    <title>documentation</title>
    <desc>Created with Sketch.</desc>
    <defs></defs>
    <g id="Page-1" stroke="none" stroke-width="1" fill="none" fill-rule="evenodd">
        <g id="documentation" fill="#000000">
            <g id="Page-1">
                <g id="Documentation" transform="translate(0.295536, 0.000000)">
                    <g id="documentation" transform="translate(0.000000, 0.000000)">
                        <path d="M1.04665703,0.0330555556 C0.548260434,0.121203704 0.164878437,0.695740741 0.164878437,1.27185185 L0.164878437,73.8240741 C0.164878437,74.4867593 0.663275031,75.0612963 1.23834803,75.0612963 L33.4930969,75.0612963 C38.0197428,75.0612963 41.7002101,78.9067593 42.2752831,83.8162963 C42.2752831,84.8331481 43.5801509,85.3636111 44.1552243,84.6127778 C44.2319005,84.5687037 44.2702388,84.5230556 44.3085767,84.4364815 C44.4619295,84.2601852 44.5769444,84.0382407 44.6152824,83.8162963 C45.1903553,78.9083333 48.9118993,75.0612963 53.435807,75.0612963 L85.691925,75.0612963 C86.2286597,75.0612963 86.7653944,74.4867593 86.7653944,73.8240741 L86.7653944,1.27185185 C86.7653944,0.609166667 86.2272907,0.0330555556 85.691925,0.0330555556 L53.435807,0.0330555556 C49.0255445,0.0330555556 45.2286936,2.95138889 43.4651364,7.24074074 C41.7002101,2.95138889 37.9033589,0.0330555556 33.4930969,0.0330555556 L1.23834803,0.0330555556 L1.16167163,0.0330555556 L1.04665703,0.0330555556 L1.04665703,0.0330555556 L1.04665703,0.0330555556 L1.04665703,0.0330555556 Z M2.31181762,2.50907407 L33.4917277,2.50907407 C38.4387246,2.50907407 42.3889283,7.0187963 42.3889283,12.5894444 L42.3889283,78.0237037 C40.357004,74.7952778 37.2119024,72.5852778 33.4917277,72.5852778 L2.31181762,72.5852778 L2.31181762,2.50907407 L2.31181762,2.50907407 L2.31181762,2.50907407 L2.31181762,2.50907407 Z M53.435807,2.50907407 L84.578748,2.50907407 L84.578748,72.5868519 L53.435807,72.5868519 C49.7156324,72.5868519 46.5321924,74.7968519 44.5386061,78.0252778 L44.5386061,12.5910185 C44.5386061,7.0187963 48.4888098,2.50907407 53.435807,2.50907407 L53.435807,2.50907407 L53.435807,2.50907407 L53.435807,2.50907407 Z" id="Shape"></path>
                    </g>
                    <g id="Lines" transform="translate(51.502223, 16.416867)" stroke="#000000" stroke-width="2">
                        <path d="M4.26325641e-14,0 L28.5186946,0" id="Line"></path>
                        <path d="M4.26325641e-14,8.04526749 L28.5186946,8.04526749" id="Line"></path>
                        <path d="M4.26325641e-14,16.090535 L28.5186946,16.090535" id="Line"></path>
                        <path d="M4.26325641e-14,24.1358025 L28.5186946,24.1358025" id="Line"></path>
                        <path d="M4.26325641e-14,32.18107 L28.5186946,32.18107" id="Line"></path>
                        <path d="M4.26325641e-14,40.2263374 L28.5186946,40.2263374" id="Line"></path>
                    </g>
                    <g id="Lines" transform="translate(6.909355, 16.416867)" stroke="#000000" stroke-width="2">
                        <path d="M4.70734562e-14,0 L28.5186946,0" id="Line"></path>
                        <path d="M4.52970994e-14,8.04526749 L28.5186946,8.04526749" id="Line"></path>
                        <path d="M4.88498131e-14,16.090535 L28.5186946,16.090535" id="Line"></path>
                        <path d="M5.06261699e-14,24.1358025 L28.5186946,24.1358025" id="Line"></path>
                        <path d="M4.70734562e-14,32.18107 L28.5186946,32.18107" id="Line"></path>
                        <path d="M4.52970994e-14,40.2263374 L28.5186946,40.2263374" id="Line"></path>
                    </g>
                </g>
            </g>
        </g>
    </g>
</svg>