<?xml version="1.0" encoding="iso-8859-1"?>
<!-- Generator: Adobe Illustrator 16.0.0, SVG Export Plug-In . SVG Version: 6.00 Build 0)  -->
<!DOCTYPE svg PUBLIC "-//W3C//DTD SVG 1.1//EN" "http://www.w3.org/Graphics/SVG/1.1/DTD/svg11.dtd">
<svg version="1.1" id="Capa_1" xmlns="http://www.w3.org/2000/svg" xmlns:xlink="http://www.w3.org/1999/xlink" x="0px" y="0px"
	 width="35.001px" height="35.001px" viewBox="0 0 35.001 35.001" style="enable-background:new 0 0 35.001 35.001;"
	 xml:space="preserve">
<g>
	<path d="M23.065,2.303l-0.803,0.804c-2.625-2.625-6.898-2.625-9.523,0l-0.803-0.804C15.004-0.768,19.998-0.768,23.065,2.303z
		 M13.325,3.691l0.803,0.804c1.859-1.857,4.887-1.857,6.745,0l0.805-0.804C19.375,1.39,15.628,1.39,13.325,3.691z M14.759,5.127
		l0.805,0.804c1.068-1.07,2.809-1.07,3.875,0l0.807-0.805C18.731,3.613,16.271,3.613,14.759,5.127z M23.065,32.699l-0.803-0.805
		c-2.625,2.625-6.898,2.625-9.523,0l-0.803,0.805C15.005,35.769,20,35.769,23.065,32.699z M21.677,31.31l-0.803-0.803
		c-1.859,1.856-4.888,1.856-6.745,0l-0.805,0.803C15.628,33.611,19.375,33.611,21.677,31.31z M20.244,29.875L19.44,29.07
		c-1.069,1.07-2.81,1.07-3.877,0l-0.805,0.806C16.271,31.388,18.731,31.388,20.244,29.875z M32.701,11.937l-0.806,0.804
		c2.625,2.626,2.625,6.897,0,9.521l0.806,0.804C35.769,19.997,35.769,15.004,32.701,11.937z M31.31,13.325l-0.803,0.804
		c1.857,1.857,1.857,4.886,0,6.743l0.803,0.805C33.612,19.374,33.612,15.627,31.31,13.325z M29.876,14.759l-0.806,0.803
		c1.07,1.07,1.07,2.811,0,3.877l0.806,0.806C31.388,18.73,31.388,16.271,29.876,14.759z M2.302,23.064l0.807-0.803
		c-2.627-2.626-2.627-6.898-0.002-9.523l-0.805-0.803C-0.767,15.005-0.767,19.998,2.302,23.064z M3.692,21.677l0.803-0.804
		c-1.857-1.858-1.857-4.887,0-6.743l-0.803-0.805C1.39,15.628,1.39,19.375,3.692,21.677z M5.127,20.243l0.804-0.804
		c-1.07-1.069-1.07-2.81,0-3.877l-0.805-0.805C3.614,16.271,3.614,18.73,5.127,20.243z M23.576,13.054l-0.089,0.122l0.539,0.695
		l0.312-0.192c-0.067-0.022-0.134-0.066-0.188-0.135C24.151,13.544,23.737,13.258,23.576,13.054z M26.767,17.501
		c0,5.116-4.146,9.264-9.264,9.264c-5.118,0-9.268-4.146-9.268-9.264c0-5.115,4.149-9.265,9.268-9.265
		C22.62,8.236,26.767,12.386,26.767,17.501z M11.38,11.765c0.08-0.039,0.16-0.072,0.24-0.096c0,0,0.773-0.079,0.449-0.564
		C11.829,11.312,11.597,11.532,11.38,11.765z M12.653,18.515c0,0-0.123-0.406-0.742-0.406c0,0-0.373-0.407-0.705-0.407
		c0,0-0.123-1.142-0.744-0.896c0,0-0.084-0.451-0.332-0.408c0,0-0.162-0.445-0.453-0.326l-0.332-0.203c0,0-0.029,0.054-0.078,0.133
		c-0.08,0.468-0.125,0.945-0.125,1.435c0,2.365,0.994,4.504,2.584,6.017c0.002-0.07,0.021-0.144,0.062-0.205
		c0,0,0.165-0.327-0.043-0.609c0,0,0.208-0.287,0.208-0.656c0,0-0.208-0.646,0.33-0.729c0,0,0.744,0,0.373-1.307
		c0,0-0.041-0.365,0.25-0.731C12.903,19.209,13.192,18.433,12.653,18.515z M13.153,10.325c-0.373,0.224-0.726,0.479-1.057,0.758
		c0.19,0.02,0.979,0.076,1.031-0.373L13.153,10.325z M24.384,13.689c0.157,0.041,0.326-0.006,0.451-0.059
		c-1.265-2.447-3.709-4.191-6.583-4.468c-0.664,0.646,0.15,0.917,0.15,0.917c0.291,0.201,0.906-0.167,0.906-0.167
		c0.252,0.285-0.701,0.693-0.701,0.693c-0.535,0.039-0.949,0.326-0.949,0.326c-0.249-0.367-0.497-0.084-0.497-0.084
		c-0.204,0.246,0.29,0.371,0.29,0.371c0.33,0.079,0.248,0.284,0.121,0.404c-0.121,0.122-0.658,0-0.658,0
		c-0.29,0.164-0.084,0.733-0.084,0.733h0.249c0.825,0.242,0.869-0.366,0.869-0.366c0.245,0,0.331-0.408,0.331-0.408
		c0.207,0.205,0.703-0.122,0.703-0.122c0.041,0.163,0.287,0.407,0.287,0.407c0.373,0.123,0.455,0.286,0.455,0.286
		c-0.373,0.082-0.041,0.242-0.041,0.242c0.498-0.205,0.123-0.485,0.123-0.485c-0.947-0.45-0.537-0.572-0.537-0.572
		c0.168,0.285,0.83,0.407,0.83,0.407c0.082,0.529,0.33,0.611,0.33,0.611c0.288,0.123,0.37-0.121,0.37-0.121
		c-0.288-0.082-0.332-0.325-0.332-0.325c-0.079-0.246,0.291-0.083,0.291-0.083c0.332,0.486,1.035,0.447,1.035,0.447
		c0.452-0.039,0.33,0.772,0.33,0.772c-0.496,0.328-1.449-0.243-1.449-0.243c0.084,0.286-0.286,0.323-0.286,0.323
		c-0.375-0.444-0.951-0.241-0.951-0.241c0.123-0.203-0.086-0.529-0.086-0.529c-0.328-0.082-0.865,0.08-0.865,0.08
		c-0.414,0.162-1.201,0.205-1.201,0.205c-0.371,0-0.619,0.733-0.619,0.733c-0.828,0.365-0.91,1.099-0.91,1.099
		c0,0.45-0.082,0.896-0.082,0.896c-0.29,0.446,0.535,0.938,0.535,0.938c0.499,0.937,1.117,0.53,1.117,0.53
		c0.498,0.202,1.572-0.204,1.572-0.204c0.125,0.406,0.703,0.285,0.703,0.285c0.205,0.121,0.123,0.531,0.123,0.531
		c-0.287,0.483,0.25,0.938,0.25,0.938c0.825,0.938,0.284,1.18,0.284,1.18c-0.575,0.57-0.202,1.062-0.202,1.062
		c0.411,0.898,0.411,1.665,0.411,1.665c1.406,0.203,1.902-0.854,1.902-0.854c0.455,0,0.455-0.404,0.455-0.404
		c0-0.489,0.291-0.69,0.291-0.69c0.661-0.448,0.538-1.346,0.538-1.346c-0.082-0.527,0.123-1.019,0.123-1.019
		c0.783-0.896,0.744-2.239,0.744-2.239c-0.33,0.163-0.537,0.039-0.537,0.039c-0.743-0.735-1.653-2.324-1.653-2.324
		c0.87,0.367,1.571,2.078,1.571,2.078c0.498-0.245,0.658-0.691,0.658-0.691C25.042,14.416,24.513,13.82,24.384,13.689z"/>
</g>
<g>
</g>
<g>
</g>
<g>
</g>
<g>
</g>
<g>
</g>
<g>
</g>
<g>
</g>
<g>
</g>
<g>
</g>
<g>
</g>
<g>
</g>
<g>
</g>
<g>
</g>
<g>
</g>
<g>
</g>
</svg>
