<?xml version="1.0" encoding="UTF-8" standalone="no"?>
<svg width="127px" height="127px" viewBox="0 0 127 127" version="1.1" xmlns="http://www.w3.org/2000/svg" xmlns:xlink="http://www.w3.org/1999/xlink" xmlns:sketch="http://www.bohemiancoding.com/sketch/ns">
    <!-- Generator: Sketch 3.4.4 (17249) - http://www.bohemiancoding.com/sketch -->
    <title>Tower</title>
    <desc>Created with Sketch.</desc>
    <defs></defs>
    <g id="Page-1" stroke="none" stroke-width="1" fill="none" fill-rule="evenodd" sketch:type="MSPage">
        <g id="+-Create-Station" sketch:type="MSArtboardGroup" transform="translate(-549.000000, -141.000000)">
            <g id="Content" sketch:type="MSLayerGroup" transform="translate(200.000000, 62.000000)">
                <g id="Station-Creator" sketch:type="MSShapeGroup">
                    <g id="Tower" transform="translate(349.697561, 80.086010)">
                        <ellipse id="Oval-19" stroke="#979797" cx="62.804878" cy="62.5647668" rx="62.804878" ry="62.5647668"></ellipse>
                        <path d="M50.2818565,54.1171594 C50.4627944,54.2363271 50.6644957,54.2935276 50.8617477,54.2935276 C51.2354884,54.2935276 51.6003304,54.0917369 51.8109303,53.7231114 C52.1327625,53.1638175 51.9681387,52.4297442 51.4446052,52.0849522 C50.6867422,51.5876255 49.9837538,50.9965535 49.3578866,50.3308031 C47.2148103,48.0459603 46.0357475,45.0143331 46.0357475,41.7968041 C46.0357475,38.5792752 47.2148103,35.5476479 49.3578866,33.2596273 C49.9570581,32.6208882 50.6422493,32.0441164 51.397146,31.5436119 C51.9206796,31.197231 52.0823372,30.4631577 51.7575388,29.9022749 C51.4357066,29.342981 50.7475492,29.1697905 50.2269819,29.5161714 C49.3282246,30.1120101 48.5065884,30.8047719 47.7887691,31.5706232 C45.2230099,34.3114812 43.8111008,37.942125 43.8111008,41.7968041 C43.8111008,45.6530721 45.2230099,49.2853048 47.7902522,52.0213961 C48.5392166,52.8174366 49.3771668,53.5229096 50.2818565,54.1171594 L50.2818565,54.1171594 Z M73.2268624,52.0849522 C72.7033289,52.4281553 72.538705,53.1622286 72.8590541,53.7231114 C73.069654,54.090148 73.4359792,54.2935276 73.8097198,54.2935276 C74.0069718,54.2935276 74.2086731,54.2363271 74.3896111,54.1187483 C75.2943007,53.5244985 76.132251,52.8190255 76.8841815,52.0198072 C79.4484576,49.2868937 80.8603667,45.654661 80.8603667,41.7968041 C80.8603667,37.9405361 79.4484576,34.3098923 76.8826984,31.5690343 C76.1589467,30.8000052 75.3387936,30.1088323 74.4459688,29.5161714 C73.9239184,29.1697905 73.2372441,29.342981 72.9154119,29.9022749 C72.5906134,30.4631577 72.7522711,31.197231 73.2758046,31.5436119 C74.024769,32.0409386 74.7114433,32.6177104 75.3150641,33.2596273 C77.4566573,35.546059 78.63572,38.5776863 78.63572,41.7968041 C78.63572,45.015922 77.4566573,48.0475492 75.3165472,50.3292142 C74.6877137,50.9981424 73.9847254,51.5876255 73.2268624,52.0849522 L73.2268624,52.0849522 Z M81.6597564,56.5879038 C81.8777718,56.8357727 82.1729083,56.9597072 82.4665616,56.9597072 C82.7424178,56.9597072 83.0167909,56.8500728 83.2333232,56.6323931 C87.0893774,52.7093912 89.2131735,47.508911 89.2131735,41.9938281 C89.2131735,36.4851008 87.0893774,31.2862096 83.2333232,27.356852 C82.7869107,26.9024257 82.0824393,26.9214925 81.6612395,27.3981635 C81.2370736,27.8764233 81.2548707,28.6311524 81.6998001,29.0839898 C85.110925,32.558921 86.9885268,37.1444956 86.9885268,41.9938281 C86.9885268,46.8495162 85.110925,51.4350908 81.6998001,54.9036665 C81.2548707,55.3565039 81.2370736,56.109644 81.6597564,56.5879038 L81.6597564,56.5879038 Z M42.2034228,56.9597072 C42.4985593,56.9597072 42.7922127,56.8357727 43.010228,56.5879038 C43.434394,56.1112329 43.4151137,55.3580928 42.9701844,54.9036665 C39.5620257,51.4350908 37.6844239,46.8495162 37.6844239,41.9938281 C37.6844239,37.1444956 39.5620257,32.558921 42.9716675,29.0839898 C43.4151137,28.6311524 43.4329109,27.8764233 43.010228,27.3981635 C42.5860621,26.9214925 41.8815906,26.9040146 41.4366613,27.356852 C37.5820901,31.2862096 35.4597772,36.4851008 35.4597772,41.9938281 C35.4597772,47.508911 37.5835732,52.7078023 41.4381444,56.6323931 C41.6531936,56.8500728 41.9290497,56.9597072 42.2034228,56.9597072 L42.2034228,56.9597072 Z M62.3097796,63.3947651 C60.8326142,63.3947651 59.6298219,64.6833655 59.6298219,66.267502 C59.6298219,67.8500496 60.8326142,69.1386501 62.3097796,69.1386501 C63.786945,69.1386501 64.9897373,67.8500496 64.9897373,66.267502 C64.9897373,64.6833655 63.786945,63.3947651 62.3097796,63.3947651 L62.3097796,63.3947651 Z M90.085235,93.0135093 L88.750447,92.0951232 C87.0092902,90.9129792 85.3660178,89.7959803 83.9244468,88.4962575 C79.924532,84.8417802 76.7314225,80.5580972 72.9079964,73.7131023 C69.9551487,68.3727987 67.094253,58.7106785 65.3768258,48.3271962 C67.715671,47.0862628 69.2299139,44.523362 69.2299139,41.668103 C69.2299139,37.5544326 66.0872296,34.2082025 62.2237599,34.2082025 C58.3602902,34.2082025 55.2176059,37.5544326 55.2176059,41.668103 C55.2176059,44.5408399 56.7555783,47.1132742 59.1285348,48.3557964 C57.5015765,57.9813719 54.581357,68.088385 51.7694036,73.7575916 C49.2689007,78.7753478 46.1143517,84.4524989 41.6769231,88.52168 C40.2457338,89.8309362 38.6098769,90.9288683 36.8776187,92.0919454 L35.4835067,93.0278094 C34.1576173,93.2629671 33.1609756,94.4959559 33.1609756,95.972047 C33.1609756,97.6165618 34.4201256,98.9528293 35.9684797,98.9528293 L53.2643661,98.9528293 C54.809754,98.9528293 56.0689041,97.6165618 56.0689041,95.972047 C56.0689041,94.2766873 54.839416,92.8975193 53.3281394,92.8975193 L52.2736568,92.8975193 C52.2721737,92.7147955 52.2736568,92.5336605 52.2751399,92.3715924 L52.276623,92.0299782 C52.2929371,89.3018314 53.1649986,86.9025876 54.9417497,84.6956011 C55.7989803,83.6278582 56.8178685,82.7825617 58.0666368,82.1025111 C59.4444346,81.3303042 60.8741409,80.9521452 62.437326,80.9521452 C66.1065099,80.9521452 68.5565875,82.9827635 69.9610811,84.681301 C71.6829576,86.7786532 72.5550191,89.1953749 72.5550191,91.8615544 L72.5565022,92.1570904 C72.5579853,92.4001926 72.5594684,92.6973175 72.5550191,92.9912646 L70.7367412,92.9976202 C69.3307645,93.1930553 68.2688665,94.4721224 68.2688665,95.972047 C68.2688665,97.6165618 69.5265334,98.9528293 71.0719213,98.9528293 L89.721876,98.9528293 C91.2553991,98.9528293 92.5041675,97.6165618 92.5041675,95.972047 C92.5041675,94.4594111 91.4482018,93.2057665 90.085235,93.0135093 L90.085235,93.0135093 Z M89.721876,96.5694746 L71.0719213,96.5694746 C70.748606,96.5694746 70.4935132,96.3073055 70.4935132,95.972047 C70.4935132,95.6717443 70.7263595,95.4032196 70.8791186,95.3714416 L73.6020861,95.3714416 C74.1552816,95.3714416 74.6254236,94.9360821 74.7040278,94.3497768 C74.7885644,93.7158045 74.7841151,92.8085407 74.7811489,92.1459681 L74.7796658,91.8615544 C74.7796658,88.6440255 73.691072,85.6171649 71.6295661,83.1035201 C69.9180712,81.0347682 66.9340785,78.5687904 62.437326,78.5687904 C60.5048496,78.5687904 58.7384801,79.0343391 57.0462655,79.9845032 C55.567617,80.7900771 54.2921529,81.8514644 53.2569507,83.138476 C51.1198067,85.7919443 50.0712566,88.6948704 50.0519763,92.0220337 L50.0504932,92.3557033 C50.047527,92.9388308 50.0430777,93.6649596 50.1009186,94.2226646 C50.1646918,94.8248589 50.6392831,95.2808741 51.2058264,95.2808741 L53.3281394,95.2808741 C53.5980632,95.2808741 53.8442574,95.609777 53.8442574,95.972047 C53.8442574,96.2961832 53.5787829,96.5694746 53.2643661,96.5694746 L35.9684797,96.5694746 C35.654063,96.5694746 35.3856223,96.2961832 35.3856223,95.972047 C35.3856223,95.6494996 35.6184686,95.3857417 35.9150882,95.3698527 C36.1049247,95.3603192 36.2903119,95.298352 36.4504865,95.1903066 L38.0596476,94.1114413 C39.7830072,92.9547198 41.5656908,91.7566868 43.1229435,90.3330296 C47.8406775,86.0064462 51.1331546,80.0941375 53.733025,74.8793572 C56.7377812,68.8208694 59.8493203,57.946416 61.4762786,47.8187472 C61.5697138,47.2372086 61.2493646,46.6683813 60.7258311,46.4840685 C58.7622097,45.7944845 57.4422526,43.8576115 57.4422526,41.668103 C57.4422526,38.8684555 59.586812,36.5915573 62.2237599,36.5915573 C64.8592247,36.5915573 67.0052672,38.8684555 67.0052672,41.668103 C67.0052672,43.8464892 65.7090397,45.7738288 63.7780464,46.4618239 C63.2574791,46.6461366 62.9415792,47.2117862 63.0335313,47.7901469 C64.7717219,58.7964792 67.8224541,69.1942617 70.9977664,74.931791 C74.9561544,82.0198881 78.2827428,86.4767616 82.487325,90.3155516 C84.0475439,91.7233199 85.7531063,92.8816303 87.553587,94.1050857 L89.1197383,95.1823621 C89.2991931,95.3047076 89.5083099,95.3714416 89.721876,95.3714416 C90.0288773,95.3714416 90.2795208,95.6399662 90.2795208,95.972047 C90.2795208,96.3009499 90.0288773,96.5694746 89.721876,96.5694746 L89.721876,96.5694746 Z M62.3097796,70.2667713 C60.8326142,70.2667713 59.6298219,71.5537829 59.6298219,73.1363305 C59.6298219,74.7204669 60.8326142,76.0090674 62.3097796,76.0090674 C63.786945,76.0090674 64.9897373,74.7204669 64.9897373,73.1363305 C64.9897373,71.5537829 63.786945,70.2667713 62.3097796,70.2667713 L62.3097796,70.2667713 Z M62.3097796,56.5291144 C60.8326142,56.5291144 59.6298219,57.816126 59.6298219,59.3986736 C59.6298219,60.98281 60.8326142,62.2698216 62.3097796,62.2698216 C63.786945,62.2698216 64.9897373,60.98281 64.9897373,59.3986736 C64.9897373,57.816126 63.786945,56.5291144 62.3097796,56.5291144 L62.3097796,56.5291144 Z" id="Fill-196" fill="#5B5B58"></path>
                    </g>
                </g>
            </g>
        </g>
    </g>
</svg>