<?xml version="1.0" encoding="UTF-8" standalone="no"?>
<svg width="347px" height="357px" viewBox="0 0 347 357" version="1.1" xmlns="http://www.w3.org/2000/svg" xmlns:xlink="http://www.w3.org/1999/xlink" xmlns:sketch="http://www.bohemiancoding.com/sketch/ns">
    <!-- Generator: Sketch 3.5 (25232) - http://www.bohemiancoding.com/sketch -->
    <title>waves</title>
    <desc>Created with Sketch.</desc>
    <defs></defs>
    <g id="Page-1" stroke="none" stroke-width="1" fill="none" fill-rule="evenodd" sketch:type="MSPage">
        <g id="waves" sketch:type="MSLayerGroup" fill="#FFFFFF">
            <path d="M13.0168613,242 C5.82049287,242 0,233.852993 0,223.733254 L0,132.295199 C0,122.184944 5.82049287,114 13.0168613,114 C20.1795071,114 26,122.184944 26,132.295199 L26,223.733254 C26,233.815056 20.1795071,242 13.0168613,242 L13.0168613,242 L13.0168613,242 Z" id="Fill-1" sketch:type="MSShapeGroup"></path>
            <path d="M65.9898832,288 C58.8204929,288 53,279.795515 53,269.651614 L53,86.3483859 C53,76.2139925 58.8204929,68 65.9898832,68 C73.1795071,68 79,76.2139925 79,86.3483859 L79,269.651614 C79,279.795515 73.1795071,288 65.9898832,288 L65.9898832,288 L65.9898832,288 Z" id="Fill-4" sketch:type="MSShapeGroup"></path>
            <path d="M120.003369,266 C112.81446,266 107,257.801594 107,247.70321 L107,110.325289 C107,100.198406 112.81446,92 120.003369,92 C127.18554,92 133,100.198406 133,110.325289 L133,247.70321 C133,257.801594 127.18554,266 120.003369,266 L120.003369,266 L120.003369,266 Z" id="Fill-5" sketch:type="MSShapeGroup"></path>
            <path d="M173.013485,310 C165.818984,310 160,301.820929 160,291.717929 L160,63.2915489 C160,53.1885483 165.818984,45 173.013485,45 C180.174274,45 186,53.1885483 186,63.2915489 L186,291.717929 C186,301.820929 180.174274,310 173.013485,310 L173.013485,310 L173.013485,310 Z" id="Fill-6" sketch:type="MSShapeGroup"></path>
            <path d="M226.013485,357 C218.818984,357 213,348.797032 213,338.676241 L213,18.3237593 C213,8.19347374 218.818984,0 226.013485,0 C233.174274,0 239,8.19347374 239,18.3237593 L239,338.676241 C239,348.797032 233.174274,357 226.013485,357 L226.013485,357 L226.013485,357 Z" id="Fill-7" sketch:type="MSShapeGroup"></path>
            <path d="M279.986515,288 C272.818984,288 267,279.795515 267,269.651614 L267,86.3483859 C267,76.2139925 272.818984,68 279.986515,68 C287.174274,68 293,76.2139925 293,86.3483859 L293,269.651614 C293,279.795515 287.174274,288 279.986515,288 L279.986515,288 L279.986515,288 Z" id="Fill-8" sketch:type="MSShapeGroup"></path>
            <path d="M334,219 C326.812953,219 321,210.834025 321,200.79668 L321,155.241125 C321,145.156523 326.812953,137 334,137 C341.180311,137 347,145.156523 347,155.241125 L347,200.79668 C347,210.834025 341.180311,219 334,219 L334,219 L334,219 Z" id="Fill-9" sketch:type="MSShapeGroup"></path>
        </g>
    </g>
</svg>