<?xml version="1.0" encoding="UTF-8" standalone="no"?>
<svg width="176px" height="125px" viewBox="0 0 176 125" version="1.1" xmlns="http://www.w3.org/2000/svg" xmlns:xlink="http://www.w3.org/1999/xlink" xmlns:sketch="http://www.bohemiancoding.com/sketch/ns">
    <!-- Generator: Sketch 3.5 (25232) - http://www.bohemiancoding.com/sketch -->
    <title>Wave</title>
    <desc>Created with Sketch.</desc>
    <defs></defs>
    <g id="Page-1" stroke="none" stroke-width="1" fill="none" fill-rule="evenodd" sketch:type="MSPage">
        <g id="Artboard-1" sketch:type="MSArtboardGroup" transform="translate(-728.000000, -174.000000)" fill="#979797">
            <g id="Group" sketch:type="MSLayerGroup" transform="translate(238.000000, 174.000000)">
                <g id="Wave" transform="translate(489.000000, 0.000000)" sketch:type="MSShapeGroup">
                    <path d="M4.72601565,60.1561725 C4.80473449,60.0216985 4.99128938,59.7383106 5.27955912,59.3567628 C5.77296583,58.7036999 6.35738863,58.0482543 7.02372009,57.4401846 C9.76374709,54.9397363 12.8963368,54.0185645 16.5662358,55.4469679 C19.2529546,56.4926966 20.9280038,58.54965 22.638319,62.3299563 C22.8292722,62.7520196 23.0180501,63.185936 23.2674224,63.7717066 C23.3387976,63.9393656 23.4218885,64.1353054 23.5761719,64.499194 C23.7011652,64.7936677 23.7945338,65.0123422 23.8865604,65.2255242 C26.0065697,70.1365816 27.835394,72.2710364 31.5833324,72.2710382 C34.8211982,72.2710397 36.2477414,68.4074743 37.7143082,60.0118023 C38.6561484,54.6200387 39.3281356,49.0084216 40.6400451,36.5496379 C40.7011425,35.9693256 40.7011425,35.9693256 40.7622066,35.3893505 C42.0245301,23.4021237 42.6699499,17.9963179 43.5478089,12.9218114 C44.087394,9.80271355 44.6398986,7.44715322 45.2084391,5.88272021 C45.475035,5.14913763 45.7326908,4.62827245 45.9460602,4.34724656 C45.9954882,4.28214571 46.0161217,4.26201138 45.9911088,4.27807861 C45.872758,4.35410208 45.6984724,4.40935371 45.5,4.40935372 C45.0635811,4.40935372 44.7638366,4.24325796 44.6145059,4.07632792 C44.6488912,4.11476562 44.7396585,4.2682096 44.8511655,4.52147921 C45.1545011,5.21045521 45.4781548,6.32824113 45.801007,7.83142749 C46.4368256,10.7917721 47.0504865,15.1327023 47.6578179,20.8463908 C48.6308727,30.0007542 49.3621393,39.6532226 50.821234,61.1852333 C50.877218,62.0114869 50.877218,62.0114869 50.9332138,62.8379748 C52.3893377,84.3284859 53.1052646,93.846246 54.0743544,103.21988 C55.4831238,116.846364 56.7297775,123.206611 59.1582818,124.62445 C60.7009641,125.525117 62.1765858,124.81621 63.0736298,123.395289 C63.5877532,122.580915 64.0155594,121.416887 64.4192149,119.849478 C65.114244,117.150655 65.7576166,113.137156 66.3874715,107.761723 C67.3769171,99.3173997 68.1019483,90.3940477 69.5713527,70.0362971 C69.6131537,69.4571294 69.6131537,69.4571294 69.6549561,68.8779158 C71.0324968,49.791636 71.7008315,41.4176445 72.6042322,33.0984201 C73.6888667,23.1102517 74.9567095,16.791387 75.6868683,16.2230002 C75.2191739,16.5870734 74.4409775,16.4728504 74.1486392,16.1524603 C74.2786704,16.2949689 74.5282983,16.8099896 74.7954829,17.6224783 C75.4037008,19.4720236 76.0106053,22.5006791 76.6161204,26.6499099 C77.6010601,33.3991082 78.3707115,40.9788697 79.8405976,57.3045742 C79.9315065,58.3145856 79.9315065,58.3145856 80.0224611,59.3253772 C83.0527302,92.9955224 84.3408687,102.749062 87.5214648,105.224974 C89.7191372,106.935737 91.6497365,105.545717 92.8217885,102.925788 C93.5626043,101.269816 94.2383452,98.7596007 94.9117928,95.3307568 C95.9522518,90.0332826 96.7462363,84.2948647 98.352044,71.3364316 C98.4025554,70.9287825 98.4025554,70.9287825 98.4530631,70.5211228 C101.120467,48.9926801 102.742782,39.6625027 104.270202,38.4734936 C103.989346,38.6921241 103.416188,38.56534 103.395637,38.5401031 C103.770679,39.0006418 104.241786,40.0424513 104.73196,41.5789327 C105.628896,44.3904398 106.466711,48.2729226 107.695854,54.9329012 C107.816833,55.5884095 107.941386,56.2683301 108.103097,57.1548144 C108.131689,57.3115501 108.425774,58.9253188 108.512696,59.4012691 C111.625777,76.4471494 113.094848,81.8927289 116.607902,83.2600851 C119.616491,84.4310923 121.64664,82.2102141 123.345652,77.9204701 C124.407216,75.2401861 125.222405,72.2907335 126.774332,65.97087 C126.870754,65.5780862 126.870754,65.5780862 126.9671,65.185475 C128.353074,59.5384919 129.03883,56.9769471 129.904636,54.4940965 C130.884507,51.6841478 131.836121,50.084525 132.350431,49.8843445 C132.461923,49.8409495 132.666861,49.963725 133.256751,50.915803 C133.990005,52.099267 134.705339,53.8679935 135.718404,56.8637034 C135.924211,57.4722897 136.648069,59.6512605 136.665759,59.7041834 C137.958959,63.5728772 138.8275,65.805971 139.917236,67.7490575 C141.52511,70.6160256 143.425021,72.2710382 145.916667,72.2710382 C148.515534,72.2710382 150.559578,70.6514397 152.306594,67.8149896 C153.499873,65.8775859 154.425063,63.719836 155.901769,59.7531243 C155.937083,59.6582657 156.489805,58.1683957 156.649997,57.7402925 C158.556871,52.6442933 159.82746,50.3149418 160.933764,49.8843445 C161.61071,49.6208628 162.704916,49.9013961 164.154855,50.8515622 C165.506628,51.7373983 167.001643,53.1025854 168.551248,54.81136 C169.631031,56.002054 170.671083,57.2848296 171.629332,58.5680795 C171.964745,59.0172507 172.26539,59.4335965 172.526338,59.8058537 C172.680365,60.0255809 172.78517,60.1790992 172.835909,60.2552061 C173.448622,61.1742582 174.690363,61.4225953 175.609415,60.8098825 C176.528467,60.1971696 176.776804,58.9554288 176.164091,58.0363767 C176.096537,57.9350474 175.974216,57.7558728 175.801743,57.5098298 C175.518524,57.1058035 175.194548,56.6571477 174.834346,56.1747787 C173.805124,54.796485 172.687243,53.4177171 171.514309,52.1243038 C169.756203,50.1856119 168.02738,48.6069206 166.347293,47.5059355 C163.925907,45.9191666 161.615297,45.3267709 159.482902,46.1567448 C156.778894,47.209203 155.316709,49.8898048 152.903684,56.3384581 C152.741139,56.7728503 152.186684,58.2673914 152.153104,58.3575914 C149.510866,65.4551415 147.77651,68.2710382 145.916667,68.2710382 C144.412819,68.2710382 142.764578,65.3320924 140.459422,58.4360643 C140.444743,58.3921517 139.717489,56.2029575 139.507601,55.5823036 C138.397867,52.3007358 137.603641,50.336944 136.656998,48.8090705 C135.174046,46.4155994 133.228729,45.2501859 130.899569,46.1567448 C128.86813,46.9474244 127.495361,49.2549902 126.127692,53.1770205 C125.204394,55.8247366 124.500775,58.4530065 123.082394,64.2320281 C122.986001,64.6248328 122.986001,64.6248328 122.88974,65.0169569 C121.385653,71.1420051 120.594915,74.0029894 119.626719,76.4475353 C119.073894,77.8433347 118.543734,78.814425 118.084893,79.3163729 C117.944464,79.4699945 117.856121,79.5335223 117.838965,79.5394422 C117.914041,79.5135366 118.016731,79.516125 118.058764,79.5324854 C117.594557,79.3518059 116.520228,77.0875028 115.487897,73.2608362 C114.563457,69.8341053 113.777308,65.9634693 112.447613,58.6826372 C112.360855,58.2075904 112.066875,56.5943983 112.03816,56.4369856 C111.875996,55.5480203 111.750989,54.8656188 111.629424,54.2069345 C110.368899,47.3769168 109.508956,43.3918888 108.542735,40.3632058 C107.911954,38.3859818 107.266734,36.9591361 106.497273,36.014266 C105.24689,34.4788408 103.411517,34.0728508 101.813131,35.3171024 C98.862454,37.6140364 97.6004069,44.8722595 94.4834172,70.0292781 C94.4329065,70.436962 94.4329065,70.436962 94.382407,70.8445146 C92.789871,83.6958487 92.0016198,89.3928302 90.9867813,94.5598585 C90.3675002,97.7129142 89.756623,99.9821767 89.1705043,101.292349 C89.0394917,101.585206 88.9165506,101.813575 88.8092418,101.972231 C88.7498755,102.060005 88.7207711,102.091992 88.7472002,102.072963 C89.0979763,101.820407 89.6854244,101.840413 89.9785352,102.068583 C89.2809266,101.525535 88.0675505,96.3749926 86.9887988,88.2068903 C86.0860666,81.3715744 85.391749,74.3602732 84.0063593,58.9668316 C83.9154133,57.9561358 83.9154133,57.9561358 83.8244829,56.9458848 C82.3472009,40.5380366 81.5740109,32.9234255 80.5741953,26.072291 C79.9377754,21.7112886 79.2934777,18.4960289 78.595299,16.3729193 C78.166046,15.0675928 77.7041972,14.1147276 77.1034617,13.4563475 C76.0545702,12.306808 74.4991354,12.0785025 73.2297983,13.0666087 C69.9063174,15.6537483 68.6529112,27.196099 65.6653339,68.5899672 C65.6235297,69.1692039 65.6235297,69.1692039 65.5817318,69.7483298 C64.1172083,90.0384589 63.3943484,98.9350872 62.4146509,107.296217 C61.804231,112.505784 61.1848165,116.369826 60.5456055,118.851905 C60.2371312,120.049723 59.9331628,120.876798 59.6912658,121.259963 C59.6799305,121.277919 59.7327523,121.223638 59.9240019,121.131759 C60.3300017,120.936712 60.823441,120.964803 61.1750515,121.170084 C61.309261,121.24844 61.3235954,121.264551 61.285609,121.201013 C61.1674504,121.003376 61.0287539,120.694168 60.8821839,120.284746 C60.5572979,119.377226 60.2263933,118.0737 59.8986034,116.401363 C59.2657664,113.172721 58.6565304,108.644824 58.0531475,102.808534 C57.09083,93.5004061 56.3766471,84.0058319 54.9240634,62.5675684 C54.86807,61.741116 54.86807,61.741116 54.8120816,60.9147975 C53.3491343,39.3259341 52.6160081,29.6489184 51.6354107,20.4235961 C50.07955,5.78627673 48.9247021,0.409353652 45.5,0.409353716 C42.3544968,0.409353774 41.0156619,4.09337857 39.6063519,12.2399631 C38.7074098,17.4363414 38.0568316,22.8853523 36.7842024,34.9704439 C36.7231228,35.5505664 36.7231228,35.5505664 36.6620385,36.130754 C35.3606832,48.4893074 34.6940079,54.0565665 33.7739732,59.3234995 C33.2067957,62.5704273 32.6230552,65.0270039 32.0192329,66.6623608 C31.7342479,67.4341975 31.4575063,67.9841572 31.2244653,68.2855541 C31.1648444,68.3626631 31.1336258,68.3925618 31.1467317,68.3843031 C31.2495786,68.3194935 31.4054536,68.2710381 31.5833343,68.2710382 C30.0217478,68.2710375 29.0871766,67.1802821 27.5589933,63.6402053 C27.4707915,63.4358835 27.3802942,63.2239336 27.2582064,62.9363051 C27.1049059,62.574732 27.0204618,62.375601 26.9477959,62.2049103 C26.6877314,61.5940239 26.4881874,61.135361 26.2826868,60.6811434 C24.1822597,56.0385737 21.8936918,53.2282218 18.0170976,51.7193682 C12.7615599,49.6738001 8.0971425,51.0454223 4.32741632,54.4855364 C2.85112644,55.8327445 1.83335999,57.1798391 1.27398435,58.1354103 C0.715966274,59.0886624 1.03636678,60.313789 1.9896189,60.8718071 C2.94287103,61.4298251 4.16799758,61.1094246 4.72601565,60.1561725 L4.72601565,60.1561725 Z" id="Shape"></path>
                </g>
            </g>
        </g>
    </g>
</svg>